  0
SECTION
  2
BLOCKS
  0
ENDSEC
  0
SECTION
  2
ENTITIES
  0
LINE
  8
0
 10
-204.301
 11
-203.61
 20
-251.064
 21
-250.113
  0
LINE
  8
0
 10
-203.61
 11
-202.492
 20
-250.113
 21
-250.476
  0
LINE
  8
0
 10
-202.492
 11
-202.492
 20
-250.476
 21
-251.652
  0
LINE
  8
0
 10
-202.492
 11
-203.61
 20
-251.652
 21
-252.015
  0
LINE
  8
0
 10
-203.61
 11
-204.301
 20
-252.015
 21
-251.064
  0
LINE
  8
0
 10
-204.301
 11
-203.61
 20
-151.064
 21
-150.113
  0
LINE
  8
0
 10
-203.61
 11
-202.492
 20
-150.113
 21
-150.476
  0
LINE
  8
0
 10
-202.492
 11
-202.492
 20
-150.476
 21
-151.652
  0
LINE
  8
0
 10
-202.492
 11
-203.61
 20
-151.652
 21
-152.015
  0
LINE
  8
0
 10
-203.61
 11
-204.301
 20
-152.015
 21
-151.064
  0
LINE
  8
0
 10
-204.279
 11
-203.406
 20
-50.856
 21
-50.07
  0
LINE
  8
0
 10
-203.406
 11
-202.388
 20
-50.07
 21
-50.657
  0
LINE
  8
0
 10
-202.388
 11
-202.632
 20
-50.657
 21
-51.807
  0
LINE
  8
0
 10
-202.632
 11
-203.801
 20
-51.807
 21
-51.93
  0
LINE
  8
0
 10
-203.801
 11
-204.279
 20
-51.93
 21
-50.856
  0
LINE
  8
0
 10
-204.279
 11
-203.801
 20
452.984
 21
454.058
  0
LINE
  8
0
 10
-203.801
 11
-202.632
 20
454.058
 21
453.935
  0
LINE
  8
0
 10
-202.632
 11
-202.388
 20
453.935
 21
452.785
  0
LINE
  8
0
 10
-202.388
 11
-203.406
 20
452.785
 21
452.198
  0
LINE
  8
0
 10
-203.406
 11
-204.279
 20
452.198
 21
452.984
  0
LINE
  8
0
 10
-189.301
 11
-188.976
 20
-231.064
 21
-229.116
  0
LINE
  8
0
 10
-188.976
 11
-188.036
 20
-229.116
 21
-227.379
  0
LINE
  8
0
 10
-188.036
 11
-186.583
 20
-227.379
 21
-226.041
  0
LINE
  8
0
 10
-186.583
 11
-184.774
 20
-226.041
 21
-225.248
  0
LINE
  8
0
 10
-184.774
 11
-182.806
 20
-225.248
 21
-225.085
  0
LINE
  8
0
 10
-182.806
 11
-180.891
 20
-225.085
 21
-225.569
  0
LINE
  8
0
 10
-180.891
 11
-179.238
 20
-225.569
 21
-226.65
  0
LINE
  8
0
 10
-179.238
 11
-178.024
 20
-226.65
 21
-228.208
  0
LINE
  8
0
 10
-178.024
 11
-177.383
 20
-228.208
 21
-230.076
  0
LINE
  8
0
 10
-177.383
 11
-177.383
 20
-230.076
 21
-232.052
  0
LINE
  8
0
 10
-177.383
 11
-178.024
 20
-232.052
 21
-233.92
  0
LINE
  8
0
 10
-178.024
 11
-179.238
 20
-233.92
 21
-235.478
  0
LINE
  8
0
 10
-179.238
 11
-180.891
 20
-235.478
 21
-236.559
  0
LINE
  8
0
 10
-180.891
 11
-182.806
 20
-236.559
 21
-237.044
  0
LINE
  8
0
 10
-182.806
 11
-184.774
 20
-237.044
 21
-236.88
  0
LINE
  8
0
 10
-184.774
 11
-186.583
 20
-236.88
 21
-236.087
  0
LINE
  8
0
 10
-186.583
 11
-188.036
 20
-236.087
 21
-234.749
  0
LINE
  8
0
 10
-188.036
 11
-188.976
 20
-234.749
 21
-233.012
  0
LINE
  8
0
 10
-188.976
 11
-189.301
 20
-233.012
 21
-231.064
  0
LINE
  8
0
 10
-189.219
 11
-189.219
 20
-172.052
 21
-170.076
  0
LINE
  8
0
 10
-189.219
 11
-188.578
 20
-170.076
 21
-168.208
  0
LINE
  8
0
 10
-188.578
 11
-187.365
 20
-168.208
 21
-166.65
  0
LINE
  8
0
 10
-187.365
 11
-185.711
 20
-166.65
 21
-165.569
  0
LINE
  8
0
 10
-185.711
 11
-183.797
 20
-165.569
 21
-165.085
  0
LINE
  8
0
 10
-183.797
 11
-181.828
 20
-165.085
 21
-165.248
  0
LINE
  8
0
 10
-181.828
 11
-180.02
 20
-165.248
 21
-166.041
  0
LINE
  8
0
 10
-180.02
 11
-178.566
 20
-166.041
 21
-167.379
  0
LINE
  8
0
 10
-178.566
 11
-177.626
 20
-167.379
 21
-169.116
  0
LINE
  8
0
 10
-177.626
 11
-177.301
 20
-169.116
 21
-171.064
  0
LINE
  8
0
 10
-177.301
 11
-177.626
 20
-171.064
 21
-173.012
  0
LINE
  8
0
 10
-177.626
 11
-178.566
 20
-173.012
 21
-174.749
  0
LINE
  8
0
 10
-178.566
 11
-180.02
 20
-174.749
 21
-176.087
  0
LINE
  8
0
 10
-180.02
 11
-181.828
 20
-176.087
 21
-176.88
  0
LINE
  8
0
 10
-181.828
 11
-183.797
 20
-176.88
 21
-177.044
  0
LINE
  8
0
 10
-183.797
 11
-185.711
 20
-177.044
 21
-176.559
  0
LINE
  8
0
 10
-185.711
 11
-187.365
 20
-176.559
 21
-175.478
  0
LINE
  8
0
 10
-187.365
 11
-188.578
 20
-175.478
 21
-173.92
  0
LINE
  8
0
 10
-188.578
 11
-189.219
 20
-173.92
 21
-172.052
  0
LINE
  8
0
 10
-181.972
 11
-181.54
 20
446.202
 21
448.13
  0
LINE
  8
0
 10
-181.54
 11
-180.505
 20
448.13
 21
449.812
  0
LINE
  8
0
 10
-180.505
 11
-178.981
 20
449.812
 21
451.068
  0
LINE
  8
0
 10
-178.981
 11
-177.131
 20
451.068
 21
451.76
  0
LINE
  8
0
 10
-177.131
 11
-175.157
 20
451.76
 21
451.815
  0
LINE
  8
0
 10
-175.157
 11
-173.272
 20
451.815
 21
451.225
  0
LINE
  8
0
 10
-173.272
 11
-171.68
 20
451.225
 21
450.055
  0
LINE
  8
0
 10
-171.68
 11
-170.555
 20
450.055
 21
448.432
  0
LINE
  8
0
 10
-170.555
 11
-170.017
 20
448.432
 21
446.532
  0
LINE
  8
0
 10
-170.017
 11
-170.126
 20
446.532
 21
444.56
  0
LINE
  8
0
 10
-170.126
 11
-170.869
 20
444.56
 21
442.73
  0
LINE
  8
0
 10
-170.869
 11
-172.166
 20
442.73
 21
441.24
  0
LINE
  8
0
 10
-172.166
 11
-173.877
 20
441.24
 21
440.253
  0
LINE
  8
0
 10
-173.877
 11
-175.815
 20
440.253
 21
439.874
  0
LINE
  8
0
 10
-175.815
 11
-177.772
 20
439.874
 21
440.145
  0
LINE
  8
0
 10
-177.772
 11
-179.534
 20
440.145
 21
441.037
  0
LINE
  8
0
 10
-179.534
 11
-180.911
 20
441.037
 21
442.453
  0
LINE
  8
0
 10
-180.911
 11
-181.754
 20
442.453
 21
444.239
  0
LINE
  8
0
 10
-181.754
 11
-181.972
 20
444.239
 21
446.202
  0
LINE
  8
0
 10
-181.944
 11
-181.407
 20
-43.084
 21
-41.183
  0
LINE
  8
0
 10
-181.407
 11
-180.281
 20
-41.183
 21
-39.56
  0
LINE
  8
0
 10
-180.281
 11
-178.69
 20
-39.56
 21
-38.39
  0
LINE
  8
0
 10
-178.69
 11
-176.805
 20
-38.39
 21
-37.8
  0
LINE
  8
0
 10
-176.805
 11
-174.83
 20
-37.8
 21
-37.855
  0
LINE
  8
0
 10
-174.83
 11
-172.981
 20
-37.855
 21
-38.547
  0
LINE
  8
0
 10
-172.981
 11
-171.456
 20
-38.547
 21
-39.803
  0
LINE
  8
0
 10
-171.456
 11
-170.422
 20
-39.803
 21
-41.486
  0
LINE
  8
0
 10
-170.422
 11
-169.99
 20
-41.486
 21
-43.413
  0
LINE
  8
0
 10
-169.99
 11
-170.207
 20
-43.413
 21
-45.376
  0
LINE
  8
0
 10
-170.207
 11
-171.05
 20
-45.376
 21
-47.162
  0
LINE
  8
0
 10
-171.05
 11
-172.427
 20
-47.162
 21
-48.578
  0
LINE
  8
0
 10
-172.427
 11
-174.19
 20
-48.578
 21
-49.47
  0
LINE
  8
0
 10
-174.19
 11
-176.146
 20
-49.47
 21
-49.741
  0
LINE
  8
0
 10
-176.146
 11
-178.085
 20
-49.741
 21
-49.363
  0
LINE
  8
0
 10
-178.085
 11
-179.795
 20
-49.363
 21
-48.375
  0
LINE
  8
0
 10
-179.795
 11
-181.092
 20
-48.375
 21
-46.886
  0
LINE
  8
0
 10
-181.092
 11
-181.836
 20
-46.886
 21
-45.056
  0
LINE
  8
0
 10
-181.836
 11
-181.944
 20
-45.056
 21
-43.084
  0
LINE
  8
0
 10
-172.201
 11
-171.947
 20
-231.064
 21
-230.114
  0
LINE
  8
0
 10
-171.947
 11
-171.251
 20
-230.114
 21
-229.419
  0
LINE
  8
0
 10
-171.251
 11
-170.301
 20
-229.419
 21
-229.164
  0
LINE
  8
0
 10
-170.301
 11
-169.351
 20
-229.164
 21
-229.419
  0
LINE
  8
0
 10
-169.351
 11
-168.656
 20
-229.419
 21
-230.114
  0
LINE
  8
0
 10
-168.656
 11
-168.401
 20
-230.114
 21
-231.064
  0
LINE
  8
0
 10
-168.401
 11
-168.656
 20
-231.064
 21
-232.014
  0
LINE
  8
0
 10
-168.656
 11
-169.351
 20
-232.014
 21
-232.71
  0
LINE
  8
0
 10
-169.351
 11
-170.301
 20
-232.71
 21
-232.964
  0
LINE
  8
0
 10
-170.301
 11
-171.251
 20
-232.964
 21
-232.71
  0
LINE
  8
0
 10
-171.251
 11
-171.947
 20
-232.71
 21
-232.014
  0
LINE
  8
0
 10
-171.947
 11
-172.201
 20
-232.014
 21
-231.064
  0
LINE
  8
0
 10
-172.201
 11
-171.947
 20
-171.064
 21
-170.114
  0
LINE
  8
0
 10
-171.947
 11
-171.251
 20
-170.114
 21
-169.419
  0
LINE
  8
0
 10
-171.251
 11
-170.301
 20
-169.419
 21
-169.164
  0
LINE
  8
0
 10
-170.301
 11
-169.351
 20
-169.164
 21
-169.419
  0
LINE
  8
0
 10
-169.351
 11
-168.656
 20
-169.419
 21
-170.114
  0
LINE
  8
0
 10
-168.656
 11
-168.401
 20
-170.114
 21
-171.064
  0
LINE
  8
0
 10
-168.401
 11
-168.656
 20
-171.064
 21
-172.014
  0
LINE
  8
0
 10
-168.656
 11
-169.351
 20
-172.014
 21
-172.71
  0
LINE
  8
0
 10
-169.351
 11
-170.301
 20
-172.71
 21
-172.964
  0
LINE
  8
0
 10
-170.301
 11
-171.251
 20
-172.964
 21
-172.71
  0
LINE
  8
0
 10
-171.251
 11
-171.947
 20
-172.71
 21
-172.014
  0
LINE
  8
0
 10
-171.947
 11
-172.201
 20
-172.014
 21
-171.064
  0
LINE
  8
0
 10
-171.381
 11
-171.126
 20
-32.485
 21
-31.535
  0
LINE
  8
0
 10
-171.126
 11
-170.431
 20
-31.535
 21
-30.84
  0
LINE
  8
0
 10
-170.431
 11
-169.481
 20
-30.84
 21
-30.585
  0
LINE
  8
0
 10
-169.481
 11
-168.531
 20
-30.585
 21
-30.84
  0
LINE
  8
0
 10
-168.531
 11
-167.835
 20
-30.84
 21
-31.535
  0
LINE
  8
0
 10
-167.835
 11
-167.581
 20
-31.535
 21
-32.485
  0
LINE
  8
0
 10
-167.581
 11
-167.835
 20
-32.485
 21
-33.435
  0
LINE
  8
0
 10
-167.835
 11
-168.531
 20
-33.435
 21
-34.131
  0
LINE
  8
0
 10
-168.531
 11
-169.481
 20
-34.131
 21
-34.385
  0
LINE
  8
0
 10
-169.481
 11
-170.431
 20
-34.385
 21
-34.131
  0
LINE
  8
0
 10
-170.431
 11
-171.126
 20
-34.131
 21
-33.435
  0
LINE
  8
0
 10
-171.126
 11
-171.381
 20
-33.435
 21
-32.485
  0
LINE
  8
0
 10
-171.381
 11
-171.126
 20
434.613
 21
435.563
  0
LINE
  8
0
 10
-171.126
 11
-170.431
 20
435.563
 21
436.259
  0
LINE
  8
0
 10
-170.431
 11
-169.481
 20
436.259
 21
436.513
  0
LINE
  8
0
 10
-169.481
 11
-168.531
 20
436.513
 21
436.259
  0
LINE
  8
0
 10
-168.531
 11
-167.835
 20
436.259
 21
435.563
  0
LINE
  8
0
 10
-167.835
 11
-167.581
 20
435.563
 21
434.613
  0
LINE
  8
0
 10
-167.581
 11
-167.835
 20
434.613
 21
433.663
  0
LINE
  8
0
 10
-167.835
 11
-168.531
 20
433.663
 21
432.968
  0
LINE
  8
0
 10
-168.531
 11
-169.481
 20
432.968
 21
432.713
  0
LINE
  8
0
 10
-169.481
 11
-170.431
 20
432.713
 21
432.968
  0
LINE
  8
0
 10
-170.431
 11
-171.126
 20
432.968
 21
433.663
  0
LINE
  8
0
 10
-171.126
 11
-171.381
 20
433.663
 21
434.613
  0
LINE
  8
0
 10
-161.374
 11
-154.9
 20
-59.652
 21
-48.44
  0
LINE
  8
0
 10
-154.9
 11
-153.122
 20
-48.44
 21
-47.648
  0
LINE
  8
0
 10
-153.122
 11
-151.218
 20
-47.648
 21
-48.052
  0
LINE
  8
0
 10
-151.218
 11
-149.915
 20
-48.052
 21
-49.499
  0
LINE
  8
0
 10
-149.915
 11
-149.711
 20
-49.499
 21
-51.435
  0
LINE
  8
0
 10
-149.711
 11
-150.685
 20
-51.435
 21
-53.121
  0
LINE
  8
0
 10
-150.685
 11
-155.211
 20
-53.121
 21
-60.962
  0
LINE
  8
0
 10
-155.211
 11
-156.185
 20
-60.962
 21
-62.648
  0
LINE
  8
0
 10
-156.185
 11
-157.963
 20
-62.648
 21
-63.439
  0
LINE
  8
0
 10
-157.963
 11
-159.868
 20
-63.439
 21
-63.035
  0
LINE
  8
0
 10
-159.868
 11
-161.17
 20
-63.035
 21
-61.588
  0
LINE
  8
0
 10
-161.17
 11
-161.374
 20
-61.588
 21
-59.652
  0
LINE
  8
0
 10
-161.374
 11
-161.17
 20
461.78
 21
463.716
  0
LINE
  8
0
 10
-161.17
 11
-159.868
 20
463.716
 21
465.163
  0
LINE
  8
0
 10
-159.868
 11
-157.963
 20
465.163
 21
465.568
  0
LINE
  8
0
 10
-157.963
 11
-156.185
 20
465.568
 21
464.776
  0
LINE
  8
0
 10
-156.185
 11
-155.211
 20
464.776
 21
463.09
  0
LINE
  8
0
 10
-155.211
 11
-150.685
 20
463.09
 21
455.249
  0
LINE
  8
0
 10
-150.685
 11
-149.711
 20
455.249
 21
453.563
  0
LINE
  8
0
 10
-149.711
 11
-149.915
 20
453.563
 21
451.627
  0
LINE
  8
0
 10
-149.915
 11
-151.218
 20
451.627
 21
450.181
  0
LINE
  8
0
 10
-151.218
 11
-153.122
 20
450.181
 21
449.776
  0
LINE
  8
0
 10
-153.122
 11
-154.9
 20
449.776
 21
450.568
  0
LINE
  8
0
 10
-154.9
 11
-161.374
 20
450.568
 21
461.78
  0
LINE
  8
0
 10
-150.289
 11
-149.315
 20
-66.052
 21
-64.366
  0
LINE
  8
0
 10
-149.315
 11
-144.789
 20
-64.366
 21
-56.525
  0
LINE
  8
0
 10
-144.789
 11
-143.815
 20
-56.525
 21
-54.84
  0
LINE
  8
0
 10
-143.815
 11
-142.037
 20
-54.84
 21
-54.048
  0
LINE
  8
0
 10
-142.037
 11
-140.132
 20
-54.048
 21
-54.452
  0
LINE
  8
0
 10
-140.132
 11
-138.83
 20
-54.452
 21
-55.899
  0
LINE
  8
0
 10
-138.83
 11
-138.626
 20
-55.899
 21
-57.835
  0
LINE
  8
0
 10
-138.626
 11
-145.1
 20
-57.835
 21
-69.048
  0
LINE
  8
0
 10
-145.1
 11
-146.878
 20
-69.048
 21
-69.839
  0
LINE
  8
0
 10
-146.878
 11
-148.782
 20
-69.839
 21
-69.435
  0
LINE
  8
0
 10
-148.782
 11
-150.085
 20
-69.435
 21
-67.988
  0
LINE
  8
0
 10
-150.085
 11
-150.289
 20
-67.988
 21
-66.052
  0
LINE
  8
0
 10
-150.289
 11
-150.085
 20
468.18
 21
470.116
  0
LINE
  8
0
 10
-150.085
 11
-148.782
 20
470.116
 21
471.563
  0
LINE
  8
0
 10
-148.782
 11
-146.878
 20
471.563
 21
471.968
  0
LINE
  8
0
 10
-146.878
 11
-145.1
 20
471.968
 21
471.176
  0
LINE
  8
0
 10
-145.1
 11
-138.626
 20
471.176
 21
459.963
  0
LINE
  8
0
 10
-138.626
 11
-138.83
 20
459.963
 21
458.027
  0
LINE
  8
0
 10
-138.83
 11
-140.132
 20
458.027
 21
456.581
  0
LINE
  8
0
 10
-140.132
 11
-142.037
 20
456.581
 21
456.176
  0
LINE
  8
0
 10
-142.037
 11
-143.815
 20
456.176
 21
456.968
  0
LINE
  8
0
 10
-143.815
 11
-149.315
 20
456.968
 21
466.494
  0
LINE
  8
0
 10
-149.315
 11
-150.289
 20
466.494
 21
468.18
  0
LINE
  8
0
 10
-142.881
 11
-142.626
 20
16.878
 21
17.828
  0
LINE
  8
0
 10
-142.626
 11
-141.931
 20
17.828
 21
18.524
  0
LINE
  8
0
 10
-141.931
 11
-140.981
 20
18.524
 21
18.778
  0
LINE
  8
0
 10
-140.981
 11
-140.031
 20
18.778
 21
18.524
  0
LINE
  8
0
 10
-140.031
 11
-139.335
 20
18.524
 21
17.828
  0
LINE
  8
0
 10
-139.335
 11
-139.081
 20
17.828
 21
16.878
  0
LINE
  8
0
 10
-139.081
 11
-139.335
 20
16.878
 21
15.928
  0
LINE
  8
0
 10
-139.335
 11
-140.031
 20
15.928
 21
15.233
  0
LINE
  8
0
 10
-140.031
 11
-140.981
 20
15.233
 21
14.978
  0
LINE
  8
0
 10
-140.981
 11
-141.931
 20
14.978
 21
15.233
  0
LINE
  8
0
 10
-141.931
 11
-142.626
 20
15.233
 21
15.928
  0
LINE
  8
0
 10
-142.626
 11
-142.881
 20
15.928
 21
16.878
  0
LINE
  8
0
 10
-142.881
 11
-142.626
 20
385.25
 21
386.2
  0
LINE
  8
0
 10
-142.626
 11
-141.931
 20
386.2
 21
386.895
  0
LINE
  8
0
 10
-141.931
 11
-140.981
 20
386.895
 21
387.15
  0
LINE
  8
0
 10
-140.981
 11
-140.031
 20
387.15
 21
386.895
  0
LINE
  8
0
 10
-140.031
 11
-139.335
 20
386.895
 21
386.2
  0
LINE
  8
0
 10
-139.335
 11
-139.081
 20
386.2
 21
385.25
  0
LINE
  8
0
 10
-139.081
 11
-139.335
 20
385.25
 21
384.3
  0
LINE
  8
0
 10
-139.335
 11
-140.031
 20
384.3
 21
383.604
  0
LINE
  8
0
 10
-140.031
 11
-140.981
 20
383.604
 21
383.35
  0
LINE
  8
0
 10
-140.981
 11
-141.931
 20
383.35
 21
383.604
  0
LINE
  8
0
 10
-141.931
 11
-142.626
 20
383.604
 21
384.3
  0
LINE
  8
0
 10
-142.626
 11
-142.881
 20
384.3
 21
385.25
  0
LINE
  8
0
 10
-130.01
 11
-129.793
 20
-74.074
 21
-72.111
  0
LINE
  8
0
 10
-129.793
 11
-128.95
 20
-72.111
 21
-70.325
  0
LINE
  8
0
 10
-128.95
 11
-127.573
 20
-70.325
 21
-68.909
  0
LINE
  8
0
 10
-127.573
 11
-125.81
 20
-68.909
 21
-68.017
  0
LINE
  8
0
 10
-125.81
 11
-123.854
 20
-68.017
 21
-67.746
  0
LINE
  8
0
 10
-123.854
 11
-121.915
 20
-67.746
 21
-68.124
  0
LINE
  8
0
 10
-121.915
 11
-120.205
 20
-68.124
 21
-69.112
  0
LINE
  8
0
 10
-120.205
 11
-118.908
 20
-69.112
 21
-70.602
  0
LINE
  8
0
 10
-118.908
 11
-118.164
 20
-70.602
 21
-72.431
  0
LINE
  8
0
 10
-118.164
 11
-118.056
 20
-72.431
 21
-74.404
  0
LINE
  8
0
 10
-118.056
 11
-118.593
 20
-74.404
 21
-76.304
  0
LINE
  8
0
 10
-118.593
 11
-119.719
 20
-76.304
 21
-77.927
  0
LINE
  8
0
 10
-119.719
 11
-121.31
 20
-77.927
 21
-79.097
  0
LINE
  8
0
 10
-121.31
 11
-123.195
 20
-79.097
 21
-79.687
  0
LINE
  8
0
 10
-123.195
 11
-125.17
 20
-79.687
 21
-79.632
  0
LINE
  8
0
 10
-125.17
 11
-127.019
 20
-79.632
 21
-78.94
  0
LINE
  8
0
 10
-127.019
 11
-128.544
 20
-78.94
 21
-77.684
  0
LINE
  8
0
 10
-128.544
 11
-129.578
 20
-77.684
 21
-76.001
  0
LINE
  8
0
 10
-129.578
 11
-130.01
 20
-76.001
 21
-74.074
  0
LINE
  8
0
 10
-129.983
 11
-129.874
 20
475.212
 21
477.184
  0
LINE
  8
0
 10
-129.874
 11
-129.131
 20
477.184
 21
479.014
  0
LINE
  8
0
 10
-129.131
 11
-127.834
 20
479.014
 21
480.503
  0
LINE
  8
0
 10
-127.834
 11
-126.123
 20
480.503
 21
481.491
  0
LINE
  8
0
 10
-126.123
 11
-124.185
 20
481.491
 21
481.869
  0
LINE
  8
0
 10
-124.185
 11
-122.228
 20
481.869
 21
481.598
  0
LINE
  8
0
 10
-122.228
 11
-120.466
 20
481.598
 21
480.706
  0
LINE
  8
0
 10
-120.466
 11
-119.089
 20
480.706
 21
479.291
  0
LINE
  8
0
 10
-119.089
 11
-118.246
 20
479.291
 21
477.504
  0
LINE
  8
0
 10
-118.246
 11
-118.028
 20
477.504
 21
475.541
  0
LINE
  8
0
 10
-118.028
 11
-118.46
 20
475.541
 21
473.614
  0
LINE
  8
0
 10
-118.46
 11
-119.495
 20
473.614
 21
471.931
  0
LINE
  8
0
 10
-119.495
 11
-121.019
 20
471.931
 21
470.676
  0
LINE
  8
0
 10
-121.019
 11
-122.869
 20
470.676
 21
469.983
  0
LINE
  8
0
 10
-122.869
 11
-124.843
 20
469.983
 21
469.929
  0
LINE
  8
0
 10
-124.843
 11
-126.728
 20
469.929
 21
470.518
  0
LINE
  8
0
 10
-126.728
 11
-128.32
 20
470.518
 21
471.688
  0
LINE
  8
0
 10
-128.32
 11
-129.445
 20
471.688
 21
473.311
  0
LINE
  8
0
 10
-129.445
 11
-129.983
 20
473.311
 21
475.212
  0
LINE
  8
0
 10
-119.419
 11
-119.165
 20
-62.485
 21
-61.535
  0
LINE
  8
0
 10
-119.165
 11
-118.469
 20
-61.535
 21
-60.84
  0
LINE
  8
0
 10
-118.469
 11
-117.519
 20
-60.84
 21
-60.585
  0
LINE
  8
0
 10
-117.519
 11
-116.569
 20
-60.585
 21
-60.84
  0
LINE
  8
0
 10
-116.569
 11
-115.874
 20
-60.84
 21
-61.535
  0
LINE
  8
0
 10
-115.874
 11
-115.619
 20
-61.535
 21
-62.485
  0
LINE
  8
0
 10
-115.619
 11
-115.874
 20
-62.485
 21
-63.435
  0
LINE
  8
0
 10
-115.874
 11
-116.569
 20
-63.435
 21
-64.131
  0
LINE
  8
0
 10
-116.569
 11
-117.519
 20
-64.131
 21
-64.385
  0
LINE
  8
0
 10
-117.519
 11
-118.469
 20
-64.385
 21
-64.131
  0
LINE
  8
0
 10
-118.469
 11
-119.165
 20
-64.131
 21
-63.435
  0
LINE
  8
0
 10
-119.165
 11
-119.419
 20
-63.435
 21
-62.485
  0
LINE
  8
0
 10
-119.419
 11
-119.165
 20
464.613
 21
465.563
  0
LINE
  8
0
 10
-119.165
 11
-118.469
 20
465.563
 21
466.259
  0
LINE
  8
0
 10
-118.469
 11
-117.519
 20
466.259
 21
466.513
  0
LINE
  8
0
 10
-117.519
 11
-116.569
 20
466.513
 21
466.259
  0
LINE
  8
0
 10
-116.569
 11
-115.874
 20
466.259
 21
465.563
  0
LINE
  8
0
 10
-115.874
 11
-115.619
 20
465.563
 21
464.613
  0
LINE
  8
0
 10
-115.619
 11
-115.874
 20
464.613
 21
463.663
  0
LINE
  8
0
 10
-115.874
 11
-116.569
 20
463.663
 21
462.968
  0
LINE
  8
0
 10
-116.569
 11
-117.519
 20
462.968
 21
462.713
  0
LINE
  8
0
 10
-117.519
 11
-118.469
 20
462.713
 21
462.968
  0
LINE
  8
0
 10
-118.469
 11
-119.165
 20
462.968
 21
463.663
  0
LINE
  8
0
 10
-119.165
 11
-119.419
 20
463.663
 21
464.613
  0
LINE
  8
0
 10
-117.677
 11
-116.803
 20
-100.856
 21
-100.07
  0
LINE
  8
0
 10
-116.803
 11
-115.785
 20
-100.07
 21
-100.657
  0
LINE
  8
0
 10
-115.785
 11
-116.03
 20
-100.657
 21
-101.807
  0
LINE
  8
0
 10
-116.03
 11
-117.199
 20
-101.807
 21
-101.93
  0
LINE
  8
0
 10
-117.199
 11
-117.677
 20
-101.93
 21
-100.856
  0
LINE
  8
0
 10
-117.677
 11
-117.199
 20
502.984
 21
504.058
  0
LINE
  8
0
 10
-117.199
 11
-116.03
 20
504.058
 21
503.935
  0
LINE
  8
0
 10
-116.03
 11
-115.785
 20
503.935
 21
502.785
  0
LINE
  8
0
 10
-115.785
 11
-116.803
 20
502.785
 21
502.198
  0
LINE
  8
0
 10
-116.803
 11
-117.677
 20
502.198
 21
502.984
  0
LINE
  8
0
 10
-90.919
 11
-90.665
 20
-13.122
 21
-12.172
  0
LINE
  8
0
 10
-90.665
 11
-89.969
 20
-12.172
 21
-11.476
  0
LINE
  8
0
 10
-89.969
 11
-89.019
 20
-11.476
 21
-11.222
  0
LINE
  8
0
 10
-89.019
 11
-88.069
 20
-11.222
 21
-11.476
  0
LINE
  8
0
 10
-88.069
 11
-87.374
 20
-11.476
 21
-12.172
  0
LINE
  8
0
 10
-87.374
 11
-87.119
 20
-12.172
 21
-13.122
  0
LINE
  8
0
 10
-87.119
 11
-87.374
 20
-13.122
 21
-14.072
  0
LINE
  8
0
 10
-87.374
 11
-88.069
 20
-14.072
 21
-14.767
  0
LINE
  8
0
 10
-88.069
 11
-89.019
 20
-14.767
 21
-15.022
  0
LINE
  8
0
 10
-89.019
 11
-89.969
 20
-15.022
 21
-14.767
  0
LINE
  8
0
 10
-89.969
 11
-90.665
 20
-14.767
 21
-14.072
  0
LINE
  8
0
 10
-90.665
 11
-90.919
 20
-14.072
 21
-13.122
  0
LINE
  8
0
 10
-90.919
 11
-90.665
 20
415.25
 21
416.2
  0
LINE
  8
0
 10
-90.665
 11
-89.969
 20
416.2
 21
416.895
  0
LINE
  8
0
 10
-89.969
 11
-89.019
 20
416.895
 21
417.15
  0
LINE
  8
0
 10
-89.019
 11
-88.069
 20
417.15
 21
416.895
  0
LINE
  8
0
 10
-88.069
 11
-87.374
 20
416.895
 21
416.2
  0
LINE
  8
0
 10
-87.374
 11
-87.119
 20
416.2
 21
415.25
  0
LINE
  8
0
 10
-87.119
 11
-87.374
 20
415.25
 21
414.3
  0
LINE
  8
0
 10
-87.374
 11
-88.069
 20
414.3
 21
413.604
  0
LINE
  8
0
 10
-88.069
 11
-89.019
 20
413.604
 21
413.35
  0
LINE
  8
0
 10
-89.019
 11
-89.969
 20
413.35
 21
413.604
  0
LINE
  8
0
 10
-89.969
 11
-90.665
 20
413.604
 21
414.3
  0
LINE
  8
0
 10
-90.665
 11
-90.919
 20
414.3
 21
415.25
  0
LINE
  8
0
 10
228.1
 11
228.355
 20
171.064
 21
172.014
  0
LINE
  8
0
 10
228.355
 11
229.05
 20
172.014
 21
172.71
  0
LINE
  8
0
 10
229.05
 11
230
 20
172.71
 21
172.964
  0
LINE
  8
0
 10
230
 11
230.95
 20
172.964
 21
172.71
  0
LINE
  8
0
 10
230.95
 11
231.645
 20
172.71
 21
172.014
  0
LINE
  8
0
 10
231.645
 11
231.9
 20
172.014
 21
171.064
  0
LINE
  8
0
 10
231.9
 11
231.645
 20
171.064
 21
170.114
  0
LINE
  8
0
 10
231.645
 11
230.95
 20
170.114
 21
169.419
  0
LINE
  8
0
 10
230.95
 11
230
 20
169.419
 21
169.164
  0
LINE
  8
0
 10
230
 11
229.05
 20
169.164
 21
169.419
  0
LINE
  8
0
 10
229.05
 11
228.355
 20
169.419
 21
170.114
  0
LINE
  8
0
 10
228.355
 11
228.1
 20
170.114
 21
171.064
  0
LINE
  8
0
 10
228.1
 11
228.355
 20
231.064
 21
232.014
  0
LINE
  8
0
 10
228.355
 11
229.05
 20
232.014
 21
232.71
  0
LINE
  8
0
 10
229.05
 11
230
 20
232.71
 21
232.964
  0
LINE
  8
0
 10
230
 11
230.95
 20
232.964
 21
232.71
  0
LINE
  8
0
 10
230.95
 11
231.645
 20
232.71
 21
232.014
  0
LINE
  8
0
 10
231.645
 11
231.9
 20
232.014
 21
231.064
  0
LINE
  8
0
 10
231.9
 11
231.645
 20
231.064
 21
230.114
  0
LINE
  8
0
 10
231.645
 11
230.95
 20
230.114
 21
229.419
  0
LINE
  8
0
 10
230.95
 11
230
 20
229.419
 21
229.164
  0
LINE
  8
0
 10
230
 11
229.05
 20
229.164
 21
229.419
  0
LINE
  8
0
 10
229.05
 11
228.355
 20
229.419
 21
230.114
  0
LINE
  8
0
 10
228.355
 11
228.1
 20
230.114
 21
231.064
  0
LINE
  8
0
 10
232.318
 11
232.573
 20
-464.613
 21
-463.663
  0
LINE
  8
0
 10
232.573
 11
233.268
 20
-463.663
 21
-462.968
  0
LINE
  8
0
 10
233.268
 11
234.218
 20
-462.968
 21
-462.713
  0
LINE
  8
0
 10
234.218
 11
235.168
 20
-462.713
 21
-462.968
  0
LINE
  8
0
 10
235.168
 11
235.863
 20
-462.968
 21
-463.663
  0
LINE
  8
0
 10
235.863
 11
236.118
 20
-463.663
 21
-464.613
  0
LINE
  8
0
 10
236.118
 11
235.863
 20
-464.613
 21
-465.563
  0
LINE
  8
0
 10
235.863
 11
235.168
 20
-465.563
 21
-466.259
  0
LINE
  8
0
 10
235.168
 11
234.218
 20
-466.259
 21
-466.513
  0
LINE
  8
0
 10
234.218
 11
233.268
 20
-466.513
 21
-466.259
  0
LINE
  8
0
 10
233.268
 11
232.573
 20
-466.259
 21
-465.563
  0
LINE
  8
0
 10
232.573
 11
232.318
 20
-465.563
 21
-464.613
  0
LINE
  8
0
 10
232.318
 11
232.573
 20
62.485
 21
63.435
  0
LINE
  8
0
 10
232.573
 11
233.268
 20
63.435
 21
64.131
  0
LINE
  8
0
 10
233.268
 11
234.218
 20
64.131
 21
64.385
  0
LINE
  8
0
 10
234.218
 11
235.168
 20
64.385
 21
64.131
  0
LINE
  8
0
 10
235.168
 11
235.863
 20
64.131
 21
63.435
  0
LINE
  8
0
 10
235.863
 11
236.118
 20
63.435
 21
62.485
  0
LINE
  8
0
 10
236.118
 11
235.863
 20
62.485
 21
61.535
  0
LINE
  8
0
 10
235.863
 11
235.168
 20
61.535
 21
60.84
  0
LINE
  8
0
 10
235.168
 11
234.218
 20
60.84
 21
60.585
  0
LINE
  8
0
 10
234.218
 11
233.268
 20
60.585
 21
60.84
  0
LINE
  8
0
 10
233.268
 11
232.573
 20
60.84
 21
61.535
  0
LINE
  8
0
 10
232.573
 11
232.318
 20
61.535
 21
62.485
  0
LINE
  8
0
 10
232.484
 11
233.502
 20
-502.785
 21
-502.198
  0
LINE
  8
0
 10
233.502
 11
234.376
 20
-502.198
 21
-502.984
  0
LINE
  8
0
 10
234.376
 11
233.897
 20
-502.984
 21
-504.058
  0
LINE
  8
0
 10
233.897
 11
232.728
 20
-504.058
 21
-503.935
  0
LINE
  8
0
 10
232.728
 11
232.484
 20
-503.935
 21
-502.785
  0
LINE
  8
0
 10
232.484
 11
232.728
 20
100.657
 21
101.807
  0
LINE
  8
0
 10
232.728
 11
233.897
 20
101.807
 21
101.93
  0
LINE
  8
0
 10
233.897
 11
234.376
 20
101.93
 21
100.856
  0
LINE
  8
0
 10
234.376
 11
233.502
 20
100.856
 21
100.07
  0
LINE
  8
0
 10
233.502
 11
232.484
 20
100.07
 21
100.657
  0
LINE
  8
0
 10
234.727
 11
235.159
 20
-475.541
 21
-473.614
  0
LINE
  8
0
 10
235.159
 11
236.193
 20
-473.614
 21
-471.931
  0
LINE
  8
0
 10
236.193
 11
237.718
 20
-471.931
 21
-470.676
  0
LINE
  8
0
 10
237.718
 11
239.568
 20
-470.676
 21
-469.983
  0
LINE
  8
0
 10
239.568
 11
241.542
 20
-469.983
 21
-469.929
  0
LINE
  8
0
 10
241.542
 11
243.427
 20
-469.929
 21
-470.518
  0
LINE
  8
0
 10
243.427
 11
245.019
 20
-470.518
 21
-471.688
  0
LINE
  8
0
 10
245.019
 11
246.144
 20
-471.688
 21
-473.311
  0
LINE
  8
0
 10
246.144
 11
246.682
 20
-473.311
 21
-475.212
  0
LINE
  8
0
 10
246.682
 11
246.573
 20
-475.212
 21
-477.184
  0
LINE
  8
0
 10
246.573
 11
245.829
 20
-477.184
 21
-479.014
  0
LINE
  8
0
 10
245.829
 11
244.532
 20
-479.014
 21
-480.503
  0
LINE
  8
0
 10
244.532
 11
242.822
 20
-480.503
 21
-481.491
  0
LINE
  8
0
 10
242.822
 11
240.883
 20
-481.491
 21
-481.869
  0
LINE
  8
0
 10
240.883
 11
238.927
 20
-481.869
 21
-481.598
  0
LINE
  8
0
 10
238.927
 11
237.165
 20
-481.598
 21
-480.706
  0
LINE
  8
0
 10
237.165
 11
235.787
 20
-480.706
 21
-479.291
  0
LINE
  8
0
 10
235.787
 11
234.944
 20
-479.291
 21
-477.504
  0
LINE
  8
0
 10
234.944
 11
234.727
 20
-477.504
 21
-475.541
  0
LINE
  8
0
 10
234.754
 11
235.292
 20
74.404
 21
76.304
  0
LINE
  8
0
 10
235.292
 11
236.417
 20
76.304
 21
77.927
  0
LINE
  8
0
 10
236.417
 11
238.009
 20
77.927
 21
79.097
  0
LINE
  8
0
 10
238.009
 11
239.894
 20
79.097
 21
79.687
  0
LINE
  8
0
 10
239.894
 11
241.868
 20
79.687
 21
79.632
  0
LINE
  8
0
 10
241.868
 11
243.718
 20
79.632
 21
78.94
  0
LINE
  8
0
 10
243.718
 11
245.243
 20
78.94
 21
77.684
  0
LINE
  8
0
 10
245.243
 11
246.277
 20
77.684
 21
76.001
  0
LINE
  8
0
 10
246.277
 11
246.709
 20
76.001
 21
74.074
  0
LINE
  8
0
 10
246.709
 11
246.492
 20
74.074
 21
72.111
  0
LINE
  8
0
 10
246.492
 11
245.649
 20
72.111
 21
70.325
  0
LINE
  8
0
 10
245.649
 11
244.271
 20
70.325
 21
68.909
  0
LINE
  8
0
 10
244.271
 11
242.509
 20
68.909
 21
68.017
  0
LINE
  8
0
 10
242.509
 11
240.553
 20
68.017
 21
67.746
  0
LINE
  8
0
 10
240.553
 11
238.614
 20
67.746
 21
68.124
  0
LINE
  8
0
 10
238.614
 11
236.904
 20
68.124
 21
69.112
  0
LINE
  8
0
 10
236.904
 11
235.606
 20
69.112
 21
70.602
  0
LINE
  8
0
 10
235.606
 11
234.863
 20
70.602
 21
72.431
  0
LINE
  8
0
 10
234.863
 11
234.754
 20
72.431
 21
74.404
  0
LINE
  8
0
 10
284.279
 11
284.534
 20
-434.613
 21
-433.663
  0
LINE
  8
0
 10
284.534
 11
285.229
 20
-433.663
 21
-432.968
  0
LINE
  8
0
 10
285.229
 11
286.179
 20
-432.968
 21
-432.713
  0
LINE
  8
0
 10
286.179
 11
287.129
 20
-432.713
 21
-432.968
  0
LINE
  8
0
 10
287.129
 11
287.825
 20
-432.968
 21
-433.663
  0
LINE
  8
0
 10
287.825
 11
288.079
 20
-433.663
 21
-434.613
  0
LINE
  8
0
 10
288.079
 11
287.825
 20
-434.613
 21
-435.563
  0
LINE
  8
0
 10
287.825
 11
287.129
 20
-435.563
 21
-436.259
  0
LINE
  8
0
 10
287.129
 11
286.179
 20
-436.259
 21
-436.513
  0
LINE
  8
0
 10
286.179
 11
285.229
 20
-436.513
 21
-436.259
  0
LINE
  8
0
 10
285.229
 11
284.534
 20
-436.259
 21
-435.563
  0
LINE
  8
0
 10
284.534
 11
284.279
 20
-435.563
 21
-434.613
  0
LINE
  8
0
 10
284.279
 11
284.534
 20
32.485
 21
33.435
  0
LINE
  8
0
 10
284.534
 11
285.229
 20
33.435
 21
34.131
  0
LINE
  8
0
 10
285.229
 11
286.179
 20
34.131
 21
34.385
  0
LINE
  8
0
 10
286.179
 11
287.129
 20
34.385
 21
34.131
  0
LINE
  8
0
 10
287.129
 11
287.825
 20
34.131
 21
33.435
  0
LINE
  8
0
 10
287.825
 11
288.079
 20
33.435
 21
32.485
  0
LINE
  8
0
 10
288.079
 11
287.825
 20
32.485
 21
31.535
  0
LINE
  8
0
 10
287.825
 11
287.129
 20
31.535
 21
30.84
  0
LINE
  8
0
 10
287.129
 11
286.179
 20
30.84
 21
30.585
  0
LINE
  8
0
 10
286.179
 11
285.229
 20
30.585
 21
30.84
  0
LINE
  8
0
 10
285.229
 11
284.534
 20
30.84
 21
31.535
  0
LINE
  8
0
 10
284.534
 11
284.279
 20
31.535
 21
32.485
  0
LINE
  8
0
 10
285.1
 11
285.355
 20
171.064
 21
172.014
  0
LINE
  8
0
 10
285.355
 11
286.05
 20
172.014
 21
172.71
  0
LINE
  8
0
 10
286.05
 11
287
 20
172.71
 21
172.964
  0
LINE
  8
0
 10
287
 11
287.95
 20
172.964
 21
172.71
  0
LINE
  8
0
 10
287.95
 11
288.645
 20
172.71
 21
172.014
  0
LINE
  8
0
 10
288.645
 11
288.9
 20
172.014
 21
171.064
  0
LINE
  8
0
 10
288.9
 11
288.645
 20
171.064
 21
170.114
  0
LINE
  8
0
 10
288.645
 11
287.95
 20
170.114
 21
169.419
  0
LINE
  8
0
 10
287.95
 11
287
 20
169.419
 21
169.164
  0
LINE
  8
0
 10
287
 11
286.05
 20
169.164
 21
169.419
  0
LINE
  8
0
 10
286.05
 11
285.355
 20
169.419
 21
170.114
  0
LINE
  8
0
 10
285.355
 11
285.1
 20
170.114
 21
171.064
  0
LINE
  8
0
 10
285.1
 11
285.355
 20
231.064
 21
232.014
  0
LINE
  8
0
 10
285.355
 11
286.05
 20
232.014
 21
232.71
  0
LINE
  8
0
 10
286.05
 11
287
 20
232.71
 21
232.964
  0
LINE
  8
0
 10
287
 11
287.95
 20
232.964
 21
232.71
  0
LINE
  8
0
 10
287.95
 11
288.645
 20
232.71
 21
232.014
  0
LINE
  8
0
 10
288.645
 11
288.9
 20
232.014
 21
231.064
  0
LINE
  8
0
 10
288.9
 11
288.645
 20
231.064
 21
230.114
  0
LINE
  8
0
 10
288.645
 11
287.95
 20
230.114
 21
229.419
  0
LINE
  8
0
 10
287.95
 11
287
 20
229.419
 21
229.164
  0
LINE
  8
0
 10
287
 11
286.05
 20
229.164
 21
229.419
  0
LINE
  8
0
 10
286.05
 11
285.355
 20
229.419
 21
230.114
  0
LINE
  8
0
 10
285.355
 11
285.1
 20
230.114
 21
231.064
  0
LINE
  8
0
 10
286.689
 11
286.906
 20
43.413
 21
45.376
  0
LINE
  8
0
 10
286.906
 11
287.749
 20
45.376
 21
47.162
  0
LINE
  8
0
 10
287.749
 11
289.126
 20
47.162
 21
48.578
  0
LINE
  8
0
 10
289.126
 11
290.888
 20
48.578
 21
49.47
  0
LINE
  8
0
 10
290.888
 11
292.845
 20
49.47
 21
49.741
  0
LINE
  8
0
 10
292.845
 11
294.783
 20
49.741
 21
49.363
  0
LINE
  8
0
 10
294.783
 11
296.494
 20
49.363
 21
48.375
  0
LINE
  8
0
 10
296.494
 11
297.791
 20
48.375
 21
46.886
  0
LINE
  8
0
 10
297.791
 11
298.534
 20
46.886
 21
45.056
  0
LINE
  8
0
 10
298.534
 11
298.643
 20
45.056
 21
43.084
  0
LINE
  8
0
 10
298.643
 11
298.106
 20
43.084
 21
41.183
  0
LINE
  8
0
 10
298.106
 11
296.98
 20
41.183
 21
39.56
  0
LINE
  8
0
 10
296.98
 11
295.389
 20
39.56
 21
38.39
  0
LINE
  8
0
 10
295.389
 11
293.504
 20
38.39
 21
37.8
  0
LINE
  8
0
 10
293.504
 11
291.529
 20
37.8
 21
37.855
  0
LINE
  8
0
 10
291.529
 11
289.679
 20
37.855
 21
38.547
  0
LINE
  8
0
 10
289.679
 11
288.155
 20
38.547
 21
39.803
  0
LINE
  8
0
 10
288.155
 11
287.121
 20
39.803
 21
41.486
  0
LINE
  8
0
 10
287.121
 11
286.689
 20
41.486
 21
43.413
  0
LINE
  8
0
 10
286.716
 11
286.825
 20
-446.532
 21
-444.56
  0
LINE
  8
0
 10
286.825
 11
287.568
 20
-444.56
 21
-442.73
  0
LINE
  8
0
 10
287.568
 11
288.865
 20
-442.73
 21
-441.24
  0
LINE
  8
0
 10
288.865
 11
290.576
 20
-441.24
 21
-440.253
  0
LINE
  8
0
 10
290.576
 11
292.514
 20
-440.253
 21
-439.874
  0
LINE
  8
0
 10
292.514
 11
294.471
 20
-439.874
 21
-440.145
  0
LINE
  8
0
 10
294.471
 11
296.233
 20
-440.145
 21
-441.037
  0
LINE
  8
0
 10
296.233
 11
297.61
 20
-441.037
 21
-442.453
  0
LINE
  8
0
 10
297.61
 11
298.453
 20
-442.453
 21
-444.239
  0
LINE
  8
0
 10
298.453
 11
298.67
 20
-444.239
 21
-446.202
  0
LINE
  8
0
 10
298.67
 11
298.238
 20
-446.202
 21
-448.13
  0
LINE
  8
0
 10
298.238
 11
297.204
 20
-448.13
 21
-449.812
  0
LINE
  8
0
 10
297.204
 11
295.679
 20
-449.812
 21
-451.068
  0
LINE
  8
0
 10
295.679
 11
293.83
 20
-451.068
 21
-451.76
  0
LINE
  8
0
 10
293.83
 11
291.855
 20
-451.76
 21
-451.815
  0
LINE
  8
0
 10
291.855
 11
289.97
 20
-451.815
 21
-451.225
  0
LINE
  8
0
 10
289.97
 11
288.379
 20
-451.225
 21
-450.055
  0
LINE
  8
0
 10
288.379
 11
287.253
 20
-450.055
 21
-448.432
  0
LINE
  8
0
 10
287.253
 11
286.716
 20
-448.432
 21
-446.532
  0
LINE
  8
0
 10
291.35
 11
291.952
 20
194.664
 21
196.516
  0
LINE
  8
0
 10
291.952
 11
293.527
 20
196.516
 21
197.66
  0
LINE
  8
0
 10
293.527
 11
306.473
 20
197.66
 21
197.66
  0
LINE
  8
0
 10
306.473
 11
308.048
 20
197.66
 21
196.516
  0
LINE
  8
0
 10
308.048
 11
308.65
 20
196.516
 21
194.664
  0
LINE
  8
0
 10
308.65
 11
308.048
 20
194.664
 21
192.813
  0
LINE
  8
0
 10
308.048
 11
306.473
 20
192.813
 21
191.668
  0
LINE
  8
0
 10
306.473
 11
293.527
 20
191.668
 21
191.668
  0
LINE
  8
0
 10
293.527
 11
291.952
 20
191.668
 21
192.813
  0
LINE
  8
0
 10
291.952
 11
291.35
 20
192.813
 21
194.664
  0
LINE
  8
0
 10
291.35
 11
291.952
 20
207.464
 21
209.316
  0
LINE
  8
0
 10
291.952
 11
293.527
 20
209.316
 21
210.46
  0
LINE
  8
0
 10
293.527
 11
306.473
 20
210.46
 21
210.46
  0
LINE
  8
0
 10
306.473
 11
308.048
 20
210.46
 21
209.316
  0
LINE
  8
0
 10
308.048
 11
308.65
 20
209.316
 21
207.464
  0
LINE
  8
0
 10
308.65
 11
308.048
 20
207.464
 21
205.613
  0
LINE
  8
0
 10
308.048
 11
306.473
 20
205.613
 21
204.468
  0
LINE
  8
0
 10
306.473
 11
293.527
 20
204.468
 21
204.468
  0
LINE
  8
0
 10
293.527
 11
291.952
 20
204.468
 21
205.613
  0
LINE
  8
0
 10
291.952
 11
291.35
 20
205.613
 21
207.464
  0
LINE
  8
0
 10
294
 11
294.325
 20
171.064
 21
173.012
  0
LINE
  8
0
 10
294.325
 11
295.265
 20
173.012
 21
174.749
  0
LINE
  8
0
 10
295.265
 11
296.718
 20
174.749
 21
176.087
  0
LINE
  8
0
 10
296.718
 11
298.527
 20
176.087
 21
176.88
  0
LINE
  8
0
 10
298.527
 11
300.495
 20
176.88
 21
177.044
  0
LINE
  8
0
 10
300.495
 11
302.41
 20
177.044
 21
176.559
  0
LINE
  8
0
 10
302.41
 11
304.064
 20
176.559
 21
175.478
  0
LINE
  8
0
 10
304.064
 11
305.277
 20
175.478
 21
173.92
  0
LINE
  8
0
 10
305.277
 11
305.918
 20
173.92
 21
172.052
  0
LINE
  8
0
 10
305.918
 11
305.918
 20
172.052
 21
170.076
  0
LINE
  8
0
 10
305.918
 11
305.277
 20
170.076
 21
168.208
  0
LINE
  8
0
 10
305.277
 11
304.064
 20
168.208
 21
166.65
  0
LINE
  8
0
 10
304.064
 11
302.41
 20
166.65
 21
165.569
  0
LINE
  8
0
 10
302.41
 11
300.495
 20
165.569
 21
165.085
  0
LINE
  8
0
 10
300.495
 11
298.527
 20
165.085
 21
165.248
  0
LINE
  8
0
 10
298.527
 11
296.718
 20
165.248
 21
166.041
  0
LINE
  8
0
 10
296.718
 11
295.265
 20
166.041
 21
167.379
  0
LINE
  8
0
 10
295.265
 11
294.325
 20
167.379
 21
169.116
  0
LINE
  8
0
 10
294.325
 11
294
 20
169.116
 21
171.064
  0
LINE
  8
0
 10
294.082
 11
294.082
 20
230.076
 21
232.052
  0
LINE
  8
0
 10
294.082
 11
294.723
 20
232.052
 21
233.92
  0
LINE
  8
0
 10
294.723
 11
295.936
 20
233.92
 21
235.478
  0
LINE
  8
0
 10
295.936
 11
297.59
 20
235.478
 21
236.559
  0
LINE
  8
0
 10
297.59
 11
299.505
 20
236.559
 21
237.044
  0
LINE
  8
0
 10
299.505
 11
301.473
 20
237.044
 21
236.88
  0
LINE
  8
0
 10
301.473
 11
303.282
 20
236.88
 21
236.087
  0
LINE
  8
0
 10
303.282
 11
304.735
 20
236.087
 21
234.749
  0
LINE
  8
0
 10
304.735
 11
305.675
 20
234.749
 21
233.012
  0
LINE
  8
0
 10
305.675
 11
306
 20
233.012
 21
231.064
  0
LINE
  8
0
 10
306
 11
305.675
 20
231.064
 21
229.116
  0
LINE
  8
0
 10
305.675
 11
304.735
 20
229.116
 21
227.379
  0
LINE
  8
0
 10
304.735
 11
303.282
 20
227.379
 21
226.041
  0
LINE
  8
0
 10
303.282
 11
301.473
 20
226.041
 21
225.248
  0
LINE
  8
0
 10
301.473
 11
299.505
 20
225.248
 21
225.085
  0
LINE
  8
0
 10
299.505
 11
297.59
 20
225.085
 21
225.569
  0
LINE
  8
0
 10
297.59
 11
295.936
 20
225.569
 21
226.65
  0
LINE
  8
0
 10
295.936
 11
294.723
 20
226.65
 21
228.208
  0
LINE
  8
0
 10
294.723
 11
294.082
 20
228.208
 21
230.076
  0
LINE
  8
0
 10
319.086
 11
320.105
 20
-452.785
 21
-452.198
  0
LINE
  8
0
 10
320.105
 11
320.978
 20
-452.198
 21
-452.984
  0
LINE
  8
0
 10
320.978
 11
320.5
 20
-452.984
 21
-454.058
  0
LINE
  8
0
 10
320.5
 11
319.331
 20
-454.058
 21
-453.935
  0
LINE
  8
0
 10
319.331
 11
319.086
 20
-453.935
 21
-452.785
  0
LINE
  8
0
 10
319.086
 11
319.331
 20
50.657
 21
51.807
  0
LINE
  8
0
 10
319.331
 11
320.5
 20
51.807
 21
51.93
  0
LINE
  8
0
 10
320.5
 11
320.978
 20
51.93
 21
50.856
  0
LINE
  8
0
 10
320.978
 11
320.105
 20
50.856
 21
50.07
  0
LINE
  8
0
 10
320.105
 11
319.086
 20
50.07
 21
50.657
  0
LINE
  8
0
 10
319.191
 11
319.191
 20
150.476
 21
151.652
  0
LINE
  8
0
 10
319.191
 11
320.309
 20
151.652
 21
152.015
  0
LINE
  8
0
 10
320.309
 11
321
 20
152.015
 21
151.064
  0
LINE
  8
0
 10
321
 11
320.309
 20
151.064
 21
150.113
  0
LINE
  8
0
 10
320.309
 11
319.191
 20
150.113
 21
150.476
  0
LINE
  8
0
 10
319.191
 11
319.191
 20
250.476
 21
251.652
  0
LINE
  8
0
 10
319.191
 11
320.309
 20
251.652
 21
252.015
  0
LINE
  8
0
 10
320.309
 11
321
 20
252.015
 21
251.064
  0
LINE
  8
0
 10
321
 11
320.309
 20
251.064
 21
250.113
  0
LINE
  8
0
 10
320.309
 11
319.191
 20
250.113
 21
250.476
  0
ENDSEC
  0
SECTION
  2
OBJECTS
  0
DICTIONARY
  0
ENDSEC
  0
EOF
