  0
SECTION
  2
BLOCKS
  0
ENDSEC
  0
SECTION
  2
ENTITIES
  0
LINE
  8
0
 10
-181.972
 11
-181.54
 20
245.138
 21
247.065
  0
LINE
  8
0
 10
-181.54
 11
-180.505
 20
247.065
 21
248.748
  0
LINE
  8
0
 10
-180.505
 11
-178.981
 20
248.748
 21
250.004
  0
LINE
  8
0
 10
-178.981
 11
-177.131
 20
250.004
 21
250.696
  0
LINE
  8
0
 10
-177.131
 11
-175.157
 20
250.696
 21
250.751
  0
LINE
  8
0
 10
-175.157
 11
-173.272
 20
250.751
 21
250.161
  0
LINE
  8
0
 10
-173.272
 11
-171.68
 20
250.161
 21
248.991
  0
LINE
  8
0
 10
-171.68
 11
-170.555
 20
248.991
 21
247.368
  0
LINE
  8
0
 10
-170.555
 11
-170.017
 20
247.368
 21
245.468
  0
LINE
  8
0
 10
-170.017
 11
-170.126
 20
245.468
 21
243.496
  0
LINE
  8
0
 10
-170.126
 11
-170.869
 20
243.496
 21
241.666
  0
LINE
  8
0
 10
-170.869
 11
-172.166
 20
241.666
 21
240.176
  0
LINE
  8
0
 10
-172.166
 11
-173.877
 20
240.176
 21
239.189
  0
LINE
  8
0
 10
-173.877
 11
-175.815
 20
239.189
 21
238.81
  0
LINE
  8
0
 10
-175.815
 11
-177.772
 20
238.81
 21
239.081
  0
LINE
  8
0
 10
-177.772
 11
-179.534
 20
239.081
 21
239.973
  0
LINE
  8
0
 10
-179.534
 11
-180.911
 20
239.973
 21
241.389
  0
LINE
  8
0
 10
-180.911
 11
-181.754
 20
241.389
 21
243.175
  0
LINE
  8
0
 10
-181.754
 11
-181.972
 20
243.175
 21
245.138
  0
LINE
  8
0
 10
-181.944
 11
-181.407
 20
-244.148
 21
-242.247
  0
LINE
  8
0
 10
-181.407
 11
-180.281
 20
-242.247
 21
-240.624
  0
LINE
  8
0
 10
-180.281
 11
-178.69
 20
-240.624
 21
-239.454
  0
LINE
  8
0
 10
-178.69
 11
-176.805
 20
-239.454
 21
-238.864
  0
LINE
  8
0
 10
-176.805
 11
-174.83
 20
-238.864
 21
-238.919
  0
LINE
  8
0
 10
-174.83
 11
-172.981
 20
-238.919
 21
-239.611
  0
LINE
  8
0
 10
-172.981
 11
-171.456
 20
-239.611
 21
-240.867
  0
LINE
  8
0
 10
-171.456
 11
-170.422
 20
-240.867
 21
-242.55
  0
LINE
  8
0
 10
-170.422
 11
-169.99
 20
-242.55
 21
-244.477
  0
LINE
  8
0
 10
-169.99
 11
-170.207
 20
-244.477
 21
-246.44
  0
LINE
  8
0
 10
-170.207
 11
-171.05
 20
-246.44
 21
-248.226
  0
LINE
  8
0
 10
-171.05
 11
-172.427
 20
-248.226
 21
-249.642
  0
LINE
  8
0
 10
-172.427
 11
-174.19
 20
-249.642
 21
-250.534
  0
LINE
  8
0
 10
-174.19
 11
-176.146
 20
-250.534
 21
-250.805
  0
LINE
  8
0
 10
-176.146
 11
-178.085
 20
-250.805
 21
-250.427
  0
LINE
  8
0
 10
-178.085
 11
-179.795
 20
-250.427
 21
-249.439
  0
LINE
  8
0
 10
-179.795
 11
-181.092
 20
-249.439
 21
-247.95
  0
LINE
  8
0
 10
-181.092
 11
-181.836
 20
-247.95
 21
-246.12
  0
LINE
  8
0
 10
-181.836
 11
-181.944
 20
-246.12
 21
-244.148
  0
LINE
  8
0
 10
-171.381
 11
-171.126
 20
-233.549
 21
-232.599
  0
LINE
  8
0
 10
-171.126
 11
-170.431
 20
-232.599
 21
-231.904
  0
LINE
  8
0
 10
-170.431
 11
-169.481
 20
-231.904
 21
-231.649
  0
LINE
  8
0
 10
-169.481
 11
-168.531
 20
-231.649
 21
-231.904
  0
LINE
  8
0
 10
-168.531
 11
-167.835
 20
-231.904
 21
-232.599
  0
LINE
  8
0
 10
-167.835
 11
-167.581
 20
-232.599
 21
-233.549
  0
LINE
  8
0
 10
-167.581
 11
-167.835
 20
-233.549
 21
-234.499
  0
LINE
  8
0
 10
-167.835
 11
-168.531
 20
-234.499
 21
-235.195
  0
LINE
  8
0
 10
-168.531
 11
-169.481
 20
-235.195
 21
-235.449
  0
LINE
  8
0
 10
-169.481
 11
-170.431
 20
-235.449
 21
-235.195
  0
LINE
  8
0
 10
-170.431
 11
-171.126
 20
-235.195
 21
-234.499
  0
LINE
  8
0
 10
-171.126
 11
-171.381
 20
-234.499
 21
-233.549
  0
LINE
  8
0
 10
-171.381
 11
-171.126
 20
233.549
 21
234.499
  0
LINE
  8
0
 10
-171.126
 11
-170.431
 20
234.499
 21
235.195
  0
LINE
  8
0
 10
-170.431
 11
-169.481
 20
235.195
 21
235.449
  0
LINE
  8
0
 10
-169.481
 11
-168.531
 20
235.449
 21
235.195
  0
LINE
  8
0
 10
-168.531
 11
-167.835
 20
235.195
 21
234.499
  0
LINE
  8
0
 10
-167.835
 11
-167.581
 20
234.499
 21
233.549
  0
LINE
  8
0
 10
-167.581
 11
-167.835
 20
233.549
 21
232.599
  0
LINE
  8
0
 10
-167.835
 11
-168.531
 20
232.599
 21
231.904
  0
LINE
  8
0
 10
-168.531
 11
-169.481
 20
231.904
 21
231.649
  0
LINE
  8
0
 10
-169.481
 11
-170.431
 20
231.649
 21
231.904
  0
LINE
  8
0
 10
-170.431
 11
-171.126
 20
231.904
 21
232.599
  0
LINE
  8
0
 10
-171.126
 11
-171.381
 20
232.599
 21
233.549
  0
LINE
  8
0
 10
-161.374
 11
-154.9
 20
-260.716
 21
-249.504
  0
LINE
  8
0
 10
-154.9
 11
-153.122
 20
-249.504
 21
-248.712
  0
LINE
  8
0
 10
-153.122
 11
-151.218
 20
-248.712
 21
-249.117
  0
LINE
  8
0
 10
-151.218
 11
-149.915
 20
-249.117
 21
-250.563
  0
LINE
  8
0
 10
-149.915
 11
-149.711
 20
-250.563
 21
-252.499
  0
LINE
  8
0
 10
-149.711
 11
-150.685
 20
-252.499
 21
-254.185
  0
LINE
  8
0
 10
-150.685
 11
-155.211
 20
-254.185
 21
-262.026
  0
LINE
  8
0
 10
-155.211
 11
-156.185
 20
-262.026
 21
-263.712
  0
LINE
  8
0
 10
-156.185
 11
-157.963
 20
-263.712
 21
-264.504
  0
LINE
  8
0
 10
-157.963
 11
-159.868
 20
-264.504
 21
-264.099
  0
LINE
  8
0
 10
-159.868
 11
-161.17
 20
-264.099
 21
-262.652
  0
LINE
  8
0
 10
-161.17
 11
-161.374
 20
-262.652
 21
-260.716
  0
LINE
  8
0
 10
-161.374
 11
-161.17
 20
260.716
 21
262.652
  0
LINE
  8
0
 10
-161.17
 11
-159.868
 20
262.652
 21
264.099
  0
LINE
  8
0
 10
-159.868
 11
-157.963
 20
264.099
 21
264.504
  0
LINE
  8
0
 10
-157.963
 11
-156.185
 20
264.504
 21
263.712
  0
LINE
  8
0
 10
-156.185
 11
-155.211
 20
263.712
 21
262.026
  0
LINE
  8
0
 10
-155.211
 11
-150.685
 20
262.026
 21
254.185
  0
LINE
  8
0
 10
-150.685
 11
-149.711
 20
254.185
 21
252.499
  0
LINE
  8
0
 10
-149.711
 11
-149.915
 20
252.499
 21
250.563
  0
LINE
  8
0
 10
-149.915
 11
-151.218
 20
250.563
 21
249.117
  0
LINE
  8
0
 10
-151.218
 11
-153.122
 20
249.117
 21
248.712
  0
LINE
  8
0
 10
-153.122
 11
-154.9
 20
248.712
 21
249.504
  0
LINE
  8
0
 10
-154.9
 11
-161.374
 20
249.504
 21
260.716
  0
LINE
  8
0
 10
-150.289
 11
-149.315
 20
-267.116
 21
-265.43
  0
LINE
  8
0
 10
-149.315
 11
-144.789
 20
-265.43
 21
-257.59
  0
LINE
  8
0
 10
-144.789
 11
-143.815
 20
-257.59
 21
-255.904
  0
LINE
  8
0
 10
-143.815
 11
-142.037
 20
-255.904
 21
-255.112
  0
LINE
  8
0
 10
-142.037
 11
-140.132
 20
-255.112
 21
-255.517
  0
LINE
  8
0
 10
-140.132
 11
-138.83
 20
-255.517
 21
-256.963
  0
LINE
  8
0
 10
-138.83
 11
-138.626
 20
-256.963
 21
-258.899
  0
LINE
  8
0
 10
-138.626
 11
-145.1
 20
-258.899
 21
-270.112
  0
LINE
  8
0
 10
-145.1
 11
-146.878
 20
-270.112
 21
-270.904
  0
LINE
  8
0
 10
-146.878
 11
-148.782
 20
-270.904
 21
-270.499
  0
LINE
  8
0
 10
-148.782
 11
-150.085
 20
-270.499
 21
-269.052
  0
LINE
  8
0
 10
-150.085
 11
-150.289
 20
-269.052
 21
-267.116
  0
LINE
  8
0
 10
-150.289
 11
-150.085
 20
267.116
 21
269.052
  0
LINE
  8
0
 10
-150.085
 11
-148.782
 20
269.052
 21
270.499
  0
LINE
  8
0
 10
-148.782
 11
-146.878
 20
270.499
 21
270.904
  0
LINE
  8
0
 10
-146.878
 11
-145.1
 20
270.904
 21
270.112
  0
LINE
  8
0
 10
-145.1
 11
-138.626
 20
270.112
 21
258.899
  0
LINE
  8
0
 10
-138.626
 11
-138.83
 20
258.899
 21
256.963
  0
LINE
  8
0
 10
-138.83
 11
-140.132
 20
256.963
 21
255.517
  0
LINE
  8
0
 10
-140.132
 11
-142.037
 20
255.517
 21
255.112
  0
LINE
  8
0
 10
-142.037
 11
-143.815
 20
255.112
 21
255.904
  0
LINE
  8
0
 10
-143.815
 11
-144.789
 20
255.904
 21
257.59
  0
LINE
  8
0
 10
-144.789
 11
-149.315
 20
257.59
 21
265.43
  0
LINE
  8
0
 10
-149.315
 11
-150.289
 20
265.43
 21
267.116
  0
LINE
  8
0
 10
-142.881
 11
-142.626
 20
-184.186
 21
-183.236
  0
LINE
  8
0
 10
-142.626
 11
-141.931
 20
-183.236
 21
-182.54
  0
LINE
  8
0
 10
-141.931
 11
-140.981
 20
-182.54
 21
-182.286
  0
LINE
  8
0
 10
-140.981
 11
-140.031
 20
-182.286
 21
-182.54
  0
LINE
  8
0
 10
-140.031
 11
-139.335
 20
-182.54
 21
-183.236
  0
LINE
  8
0
 10
-139.335
 11
-139.081
 20
-183.236
 21
-184.186
  0
LINE
  8
0
 10
-139.081
 11
-139.335
 20
-184.186
 21
-185.136
  0
LINE
  8
0
 10
-139.335
 11
-140.031
 20
-185.136
 21
-185.831
  0
LINE
  8
0
 10
-140.031
 11
-140.981
 20
-185.831
 21
-186.086
  0
LINE
  8
0
 10
-140.981
 11
-141.931
 20
-186.086
 21
-185.831
  0
LINE
  8
0
 10
-141.931
 11
-142.626
 20
-185.831
 21
-185.136
  0
LINE
  8
0
 10
-142.626
 11
-142.881
 20
-185.136
 21
-184.186
  0
LINE
  8
0
 10
-142.881
 11
-142.626
 20
184.186
 21
185.136
  0
LINE
  8
0
 10
-142.626
 11
-141.931
 20
185.136
 21
185.831
  0
LINE
  8
0
 10
-141.931
 11
-140.981
 20
185.831
 21
186.086
  0
LINE
  8
0
 10
-140.981
 11
-140.031
 20
186.086
 21
185.831
  0
LINE
  8
0
 10
-140.031
 11
-139.335
 20
185.831
 21
185.136
  0
LINE
  8
0
 10
-139.335
 11
-139.081
 20
185.136
 21
184.186
  0
LINE
  8
0
 10
-139.081
 11
-139.335
 20
184.186
 21
183.236
  0
LINE
  8
0
 10
-139.335
 11
-140.031
 20
183.236
 21
182.54
  0
LINE
  8
0
 10
-140.031
 11
-140.981
 20
182.54
 21
182.286
  0
LINE
  8
0
 10
-140.981
 11
-141.931
 20
182.286
 21
182.54
  0
LINE
  8
0
 10
-141.931
 11
-142.626
 20
182.54
 21
183.236
  0
LINE
  8
0
 10
-142.626
 11
-142.881
 20
183.236
 21
184.186
  0
LINE
  8
0
 10
-130.01
 11
-129.793
 20
-275.138
 21
-273.175
  0
LINE
  8
0
 10
-129.793
 11
-128.95
 20
-273.175
 21
-271.389
  0
LINE
  8
0
 10
-128.95
 11
-127.573
 20
-271.389
 21
-269.973
  0
LINE
  8
0
 10
-127.573
 11
-125.81
 20
-269.973
 21
-269.081
  0
LINE
  8
0
 10
-125.81
 11
-123.854
 20
-269.081
 21
-268.81
  0
LINE
  8
0
 10
-123.854
 11
-121.915
 20
-268.81
 21
-269.189
  0
LINE
  8
0
 10
-121.915
 11
-120.205
 20
-269.189
 21
-270.176
  0
LINE
  8
0
 10
-120.205
 11
-118.908
 20
-270.176
 21
-271.666
  0
LINE
  8
0
 10
-118.908
 11
-118.164
 20
-271.666
 21
-273.496
  0
LINE
  8
0
 10
-118.164
 11
-118.056
 20
-273.496
 21
-275.468
  0
LINE
  8
0
 10
-118.056
 11
-118.593
 20
-275.468
 21
-277.368
  0
LINE
  8
0
 10
-118.593
 11
-119.719
 20
-277.368
 21
-278.991
  0
LINE
  8
0
 10
-119.719
 11
-121.31
 20
-278.991
 21
-280.161
  0
LINE
  8
0
 10
-121.31
 11
-123.195
 20
-280.161
 21
-280.751
  0
LINE
  8
0
 10
-123.195
 11
-125.17
 20
-280.751
 21
-280.696
  0
LINE
  8
0
 10
-125.17
 11
-127.019
 20
-280.696
 21
-280.004
  0
LINE
  8
0
 10
-127.019
 11
-128.544
 20
-280.004
 21
-278.748
  0
LINE
  8
0
 10
-128.544
 11
-129.578
 20
-278.748
 21
-277.065
  0
LINE
  8
0
 10
-129.578
 11
-130.01
 20
-277.065
 21
-275.138
  0
LINE
  8
0
 10
-129.983
 11
-129.874
 20
274.148
 21
276.12
  0
LINE
  8
0
 10
-129.874
 11
-129.131
 20
276.12
 21
277.95
  0
LINE
  8
0
 10
-129.131
 11
-127.834
 20
277.95
 21
279.439
  0
LINE
  8
0
 10
-127.834
 11
-126.123
 20
279.439
 21
280.427
  0
LINE
  8
0
 10
-126.123
 11
-124.185
 20
280.427
 21
280.805
  0
LINE
  8
0
 10
-124.185
 11
-122.228
 20
280.805
 21
280.534
  0
LINE
  8
0
 10
-122.228
 11
-120.466
 20
280.534
 21
279.642
  0
LINE
  8
0
 10
-120.466
 11
-119.089
 20
279.642
 21
278.226
  0
LINE
  8
0
 10
-119.089
 11
-118.246
 20
278.226
 21
276.44
  0
LINE
  8
0
 10
-118.246
 11
-118.028
 20
276.44
 21
274.477
  0
LINE
  8
0
 10
-118.028
 11
-118.46
 20
274.477
 21
272.55
  0
LINE
  8
0
 10
-118.46
 11
-119.495
 20
272.55
 21
270.867
  0
LINE
  8
0
 10
-119.495
 11
-121.019
 20
270.867
 21
269.611
  0
LINE
  8
0
 10
-121.019
 11
-122.869
 20
269.611
 21
268.919
  0
LINE
  8
0
 10
-122.869
 11
-124.843
 20
268.919
 21
268.864
  0
LINE
  8
0
 10
-124.843
 11
-126.728
 20
268.864
 21
269.454
  0
LINE
  8
0
 10
-126.728
 11
-128.32
 20
269.454
 21
270.624
  0
LINE
  8
0
 10
-128.32
 11
-129.445
 20
270.624
 21
272.247
  0
LINE
  8
0
 10
-129.445
 11
-129.983
 20
272.247
 21
274.148
  0
LINE
  8
0
 10
-119.419
 11
-119.165
 20
-263.549
 21
-262.599
  0
LINE
  8
0
 10
-119.165
 11
-118.469
 20
-262.599
 21
-261.904
  0
LINE
  8
0
 10
-118.469
 11
-117.519
 20
-261.904
 21
-261.649
  0
LINE
  8
0
 10
-117.519
 11
-116.569
 20
-261.649
 21
-261.904
  0
LINE
  8
0
 10
-116.569
 11
-115.874
 20
-261.904
 21
-262.599
  0
LINE
  8
0
 10
-115.874
 11
-115.619
 20
-262.599
 21
-263.549
  0
LINE
  8
0
 10
-115.619
 11
-115.874
 20
-263.549
 21
-264.499
  0
LINE
  8
0
 10
-115.874
 11
-116.569
 20
-264.499
 21
-265.195
  0
LINE
  8
0
 10
-116.569
 11
-117.519
 20
-265.195
 21
-265.449
  0
LINE
  8
0
 10
-117.519
 11
-118.469
 20
-265.449
 21
-265.195
  0
LINE
  8
0
 10
-118.469
 11
-119.165
 20
-265.195
 21
-264.499
  0
LINE
  8
0
 10
-119.165
 11
-119.419
 20
-264.499
 21
-263.549
  0
LINE
  8
0
 10
-119.419
 11
-119.165
 20
263.549
 21
264.499
  0
LINE
  8
0
 10
-119.165
 11
-118.469
 20
264.499
 21
265.195
  0
LINE
  8
0
 10
-118.469
 11
-117.519
 20
265.195
 21
265.449
  0
LINE
  8
0
 10
-117.519
 11
-116.569
 20
265.449
 21
265.195
  0
LINE
  8
0
 10
-116.569
 11
-115.874
 20
265.195
 21
264.499
  0
LINE
  8
0
 10
-115.874
 11
-115.619
 20
264.499
 21
263.549
  0
LINE
  8
0
 10
-115.619
 11
-115.874
 20
263.549
 21
262.599
  0
LINE
  8
0
 10
-115.874
 11
-116.569
 20
262.599
 21
261.904
  0
LINE
  8
0
 10
-116.569
 11
-117.519
 20
261.904
 21
261.649
  0
LINE
  8
0
 10
-117.519
 11
-118.469
 20
261.649
 21
261.904
  0
LINE
  8
0
 10
-118.469
 11
-119.165
 20
261.904
 21
262.599
  0
LINE
  8
0
 10
-119.165
 11
-119.419
 20
262.599
 21
263.549
  0
LINE
  8
0
 10
-90.919
 11
-90.665
 20
-214.186
 21
-213.236
  0
LINE
  8
0
 10
-90.665
 11
-89.969
 20
-213.236
 21
-212.54
  0
LINE
  8
0
 10
-89.969
 11
-89.019
 20
-212.54
 21
-212.286
  0
LINE
  8
0
 10
-89.019
 11
-88.069
 20
-212.286
 21
-212.54
  0
LINE
  8
0
 10
-88.069
 11
-87.374
 20
-212.54
 21
-213.236
  0
LINE
  8
0
 10
-87.374
 11
-87.119
 20
-213.236
 21
-214.186
  0
LINE
  8
0
 10
-87.119
 11
-87.374
 20
-214.186
 21
-215.136
  0
LINE
  8
0
 10
-87.374
 11
-88.069
 20
-215.136
 21
-215.831
  0
LINE
  8
0
 10
-88.069
 11
-89.019
 20
-215.831
 21
-216.086
  0
LINE
  8
0
 10
-89.019
 11
-89.969
 20
-216.086
 21
-215.831
  0
LINE
  8
0
 10
-89.969
 11
-90.665
 20
-215.831
 21
-215.136
  0
LINE
  8
0
 10
-90.665
 11
-90.919
 20
-215.136
 21
-214.186
  0
LINE
  8
0
 10
-90.919
 11
-90.665
 20
214.186
 21
215.136
  0
LINE
  8
0
 10
-90.665
 11
-89.969
 20
215.136
 21
215.831
  0
LINE
  8
0
 10
-89.969
 11
-89.019
 20
215.831
 21
216.086
  0
LINE
  8
0
 10
-89.019
 11
-88.069
 20
216.086
 21
215.831
  0
LINE
  8
0
 10
-88.069
 11
-87.374
 20
215.831
 21
215.136
  0
LINE
  8
0
 10
-87.374
 11
-87.119
 20
215.136
 21
214.186
  0
LINE
  8
0
 10
-87.119
 11
-87.374
 20
214.186
 21
213.236
  0
LINE
  8
0
 10
-87.374
 11
-88.069
 20
213.236
 21
212.54
  0
LINE
  8
0
 10
-88.069
 11
-89.019
 20
212.54
 21
212.286
  0
LINE
  8
0
 10
-89.019
 11
-89.969
 20
212.286
 21
212.54
  0
LINE
  8
0
 10
-89.969
 11
-90.665
 20
212.54
 21
213.236
  0
LINE
  8
0
 10
-90.665
 11
-90.919
 20
213.236
 21
214.186
  0
LINE
  8
0
 10
228.1
 11
228.355
 20
-30
 21
-29.05
  0
LINE
  8
0
 10
228.355
 11
229.05
 20
-29.05
 21
-28.355
  0
LINE
  8
0
 10
229.05
 11
230
 20
-28.355
 21
-28.1
  0
LINE
  8
0
 10
230
 11
230.95
 20
-28.1
 21
-28.355
  0
LINE
  8
0
 10
230.95
 11
231.645
 20
-28.355
 21
-29.05
  0
LINE
  8
0
 10
231.645
 11
231.9
 20
-29.05
 21
-30
  0
LINE
  8
0
 10
231.9
 11
231.645
 20
-30
 21
-30.95
  0
LINE
  8
0
 10
231.645
 11
230.95
 20
-30.95
 21
-31.645
  0
LINE
  8
0
 10
230.95
 11
230
 20
-31.645
 21
-31.9
  0
LINE
  8
0
 10
230
 11
229.05
 20
-31.9
 21
-31.645
  0
LINE
  8
0
 10
229.05
 11
228.355
 20
-31.645
 21
-30.95
  0
LINE
  8
0
 10
228.355
 11
228.1
 20
-30.95
 21
-30
  0
LINE
  8
0
 10
228.1
 11
228.355
 20
30
 21
30.95
  0
LINE
  8
0
 10
228.355
 11
229.05
 20
30.95
 21
31.645
  0
LINE
  8
0
 10
229.05
 11
230
 20
31.645
 21
31.9
  0
LINE
  8
0
 10
230
 11
230.95
 20
31.9
 21
31.645
  0
LINE
  8
0
 10
230.95
 11
231.645
 20
31.645
 21
30.95
  0
LINE
  8
0
 10
231.645
 11
231.9
 20
30.95
 21
30
  0
LINE
  8
0
 10
231.9
 11
231.645
 20
30
 21
29.05
  0
LINE
  8
0
 10
231.645
 11
230.95
 20
29.05
 21
28.355
  0
LINE
  8
0
 10
230.95
 11
230
 20
28.355
 21
28.1
  0
LINE
  8
0
 10
230
 11
229.05
 20
28.1
 21
28.355
  0
LINE
  8
0
 10
229.05
 11
228.355
 20
28.355
 21
29.05
  0
LINE
  8
0
 10
228.355
 11
228.1
 20
29.05
 21
30
  0
LINE
  8
0
 10
285.1
 11
285.355
 20
-30
 21
-29.05
  0
LINE
  8
0
 10
285.355
 11
286.05
 20
-29.05
 21
-28.355
  0
LINE
  8
0
 10
286.05
 11
287
 20
-28.355
 21
-28.1
  0
LINE
  8
0
 10
287
 11
287.95
 20
-28.1
 21
-28.355
  0
LINE
  8
0
 10
287.95
 11
288.645
 20
-28.355
 21
-29.05
  0
LINE
  8
0
 10
288.645
 11
288.9
 20
-29.05
 21
-30
  0
LINE
  8
0
 10
288.9
 11
288.645
 20
-30
 21
-30.95
  0
LINE
  8
0
 10
288.645
 11
287.95
 20
-30.95
 21
-31.645
  0
LINE
  8
0
 10
287.95
 11
287
 20
-31.645
 21
-31.9
  0
LINE
  8
0
 10
287
 11
286.05
 20
-31.9
 21
-31.645
  0
LINE
  8
0
 10
286.05
 11
285.355
 20
-31.645
 21
-30.95
  0
LINE
  8
0
 10
285.355
 11
285.1
 20
-30.95
 21
-30
  0
LINE
  8
0
 10
285.1
 11
285.355
 20
30
 21
30.95
  0
LINE
  8
0
 10
285.355
 11
286.05
 20
30.95
 21
31.645
  0
LINE
  8
0
 10
286.05
 11
287
 20
31.645
 21
31.9
  0
LINE
  8
0
 10
287
 11
287.95
 20
31.9
 21
31.645
  0
LINE
  8
0
 10
287.95
 11
288.645
 20
31.645
 21
30.95
  0
LINE
  8
0
 10
288.645
 11
288.9
 20
30.95
 21
30
  0
LINE
  8
0
 10
288.9
 11
288.645
 20
30
 21
29.05
  0
LINE
  8
0
 10
288.645
 11
287.95
 20
29.05
 21
28.355
  0
LINE
  8
0
 10
287.95
 11
287
 20
28.355
 21
28.1
  0
LINE
  8
0
 10
287
 11
286.05
 20
28.1
 21
28.355
  0
LINE
  8
0
 10
286.05
 11
285.355
 20
28.355
 21
29.05
  0
LINE
  8
0
 10
285.355
 11
285.1
 20
29.05
 21
30
  0
LINE
  8
0
 10
291.35
 11
291.952
 20
-6.4
 21
-4.548
  0
LINE
  8
0
 10
291.952
 11
293.527
 20
-4.548
 21
-3.404
  0
LINE
  8
0
 10
293.527
 11
306.473
 20
-3.404
 21
-3.404
  0
LINE
  8
0
 10
306.473
 11
308.048
 20
-3.404
 21
-4.548
  0
LINE
  8
0
 10
308.048
 11
308.65
 20
-4.548
 21
-6.4
  0
LINE
  8
0
 10
308.65
 11
308.048
 20
-6.4
 21
-8.252
  0
LINE
  8
0
 10
308.048
 11
306.473
 20
-8.252
 21
-9.396
  0
LINE
  8
0
 10
306.473
 11
293.527
 20
-9.396
 21
-9.396
  0
LINE
  8
0
 10
293.527
 11
291.952
 20
-9.396
 21
-8.252
  0
LINE
  8
0
 10
291.952
 11
291.35
 20
-8.252
 21
-6.4
  0
LINE
  8
0
 10
291.35
 11
291.952
 20
6.4
 21
8.252
  0
LINE
  8
0
 10
291.952
 11
293.527
 20
8.252
 21
9.396
  0
LINE
  8
0
 10
293.527
 11
306.473
 20
9.396
 21
9.396
  0
LINE
  8
0
 10
306.473
 11
308.048
 20
9.396
 21
8.252
  0
LINE
  8
0
 10
308.048
 11
308.65
 20
8.252
 21
6.4
  0
LINE
  8
0
 10
308.65
 11
308.048
 20
6.4
 21
4.548
  0
LINE
  8
0
 10
308.048
 11
306.473
 20
4.548
 21
3.404
  0
LINE
  8
0
 10
306.473
 11
293.527
 20
3.404
 21
3.404
  0
LINE
  8
0
 10
293.527
 11
291.952
 20
3.404
 21
4.548
  0
LINE
  8
0
 10
291.952
 11
291.35
 20
4.548
 21
6.4
  0
LINE
  8
0
 10
294
 11
294.325
 20
-30
 21
-28.052
  0
LINE
  8
0
 10
294.325
 11
295.265
 20
-28.052
 21
-26.315
  0
LINE
  8
0
 10
295.265
 11
296.718
 20
-26.315
 21
-24.977
  0
LINE
  8
0
 10
296.718
 11
298.527
 20
-24.977
 21
-24.184
  0
LINE
  8
0
 10
298.527
 11
300.495
 20
-24.184
 21
-24.02
  0
LINE
  8
0
 10
300.495
 11
302.41
 20
-24.02
 21
-24.505
  0
LINE
  8
0
 10
302.41
 11
304.064
 20
-24.505
 21
-25.586
  0
LINE
  8
0
 10
304.064
 11
305.277
 20
-25.586
 21
-27.144
  0
LINE
  8
0
 10
305.277
 11
305.918
 20
-27.144
 21
-29.012
  0
LINE
  8
0
 10
305.918
 11
305.918
 20
-29.012
 21
-30.988
  0
LINE
  8
0
 10
305.918
 11
305.277
 20
-30.988
 21
-32.856
  0
LINE
  8
0
 10
305.277
 11
304.064
 20
-32.856
 21
-34.414
  0
LINE
  8
0
 10
304.064
 11
302.41
 20
-34.414
 21
-35.495
  0
LINE
  8
0
 10
302.41
 11
300.495
 20
-35.495
 21
-35.98
  0
LINE
  8
0
 10
300.495
 11
298.527
 20
-35.98
 21
-35.816
  0
LINE
  8
0
 10
298.527
 11
296.718
 20
-35.816
 21
-35.023
  0
LINE
  8
0
 10
296.718
 11
295.265
 20
-35.023
 21
-33.685
  0
LINE
  8
0
 10
295.265
 11
294.325
 20
-33.685
 21
-31.948
  0
LINE
  8
0
 10
294.325
 11
294
 20
-31.948
 21
-30
  0
LINE
  8
0
 10
294.082
 11
294.082
 20
29.012
 21
30.988
  0
LINE
  8
0
 10
294.082
 11
294.723
 20
30.988
 21
32.856
  0
LINE
  8
0
 10
294.723
 11
295.936
 20
32.856
 21
34.414
  0
LINE
  8
0
 10
295.936
 11
297.59
 20
34.414
 21
35.495
  0
LINE
  8
0
 10
297.59
 11
299.505
 20
35.495
 21
35.98
  0
LINE
  8
0
 10
299.505
 11
301.473
 20
35.98
 21
35.816
  0
LINE
  8
0
 10
301.473
 11
303.282
 20
35.816
 21
35.023
  0
LINE
  8
0
 10
303.282
 11
304.735
 20
35.023
 21
33.685
  0
LINE
  8
0
 10
304.735
 11
305.675
 20
33.685
 21
31.948
  0
LINE
  8
0
 10
305.675
 11
306
 20
31.948
 21
30
  0
LINE
  8
0
 10
306
 11
305.675
 20
30
 21
28.052
  0
LINE
  8
0
 10
305.675
 11
304.735
 20
28.052
 21
26.315
  0
LINE
  8
0
 10
304.735
 11
303.282
 20
26.315
 21
24.977
  0
LINE
  8
0
 10
303.282
 11
301.473
 20
24.977
 21
24.184
  0
LINE
  8
0
 10
301.473
 11
299.505
 20
24.184
 21
24.02
  0
LINE
  8
0
 10
299.505
 11
297.59
 20
24.02
 21
24.505
  0
LINE
  8
0
 10
297.59
 11
295.936
 20
24.505
 21
25.586
  0
LINE
  8
0
 10
295.936
 11
294.723
 20
25.586
 21
27.144
  0
LINE
  8
0
 10
294.723
 11
294.082
 20
27.144
 21
29.012
  0
ENDSEC
  0
SECTION
  2
OBJECTS
  0
DICTIONARY
  0
ENDSEC
  0
EOF
